<svg width="95" height="96" viewBox="0 0 95 96" fill="none" xmlns="http://www.w3.org/2000/svg">
<path d="M88.6821 54.3869C88.6821 77.3689 70.0793 95.9995 47.1316 95.9995C24.1839 95.9995 5.58105 77.3689 5.58105 54.3869C5.58105 31.405 24.1839 12.7744 47.1316 12.7744C70.0793 12.7744 88.6821 31.405 88.6821 54.3869Z" fill="black"/>
<path fill-rule="evenodd" clip-rule="evenodd" d="M47.1316 94.3871C69.1865 94.3871 87.0697 76.4807 87.0697 54.3869C87.0697 32.2932 69.1865 14.3868 47.1316 14.3868C25.0766 14.3868 7.19346 32.2932 7.19346 54.3869C7.19346 76.4807 25.0766 94.3871 47.1316 94.3871ZM47.1316 95.9995C70.0793 95.9995 88.6821 77.3689 88.6821 54.3869C88.6821 31.405 70.0793 12.7744 47.1316 12.7744C24.1839 12.7744 5.58105 31.405 5.58105 54.3869C5.58105 77.3689 24.1839 95.9995 47.1316 95.9995Z" fill="white"/>
<path d="M83.845 54.3881C83.845 74.6985 67.4079 91.1634 47.1317 91.1634C26.8556 91.1634 10.4185 74.6985 10.4185 54.3881C10.4185 34.0777 26.8556 17.6128 47.1317 17.6128C67.4079 17.6128 83.845 34.0777 83.845 54.3881Z" fill="black"/>
<path fill-rule="evenodd" clip-rule="evenodd" d="M47.1317 89.9231C66.721 89.9231 82.6047 74.0155 82.6047 54.3881C82.6047 34.7607 66.721 18.8531 47.1317 18.8531C27.5425 18.8531 11.6588 34.7607 11.6588 54.3881C11.6588 74.0155 27.5425 89.9231 47.1317 89.9231ZM47.1317 91.1634C67.4079 91.1634 83.845 74.6985 83.845 54.3881C83.845 34.0777 67.4079 17.6128 47.1317 17.6128C26.8556 17.6128 10.4185 34.0777 10.4185 54.3881C10.4185 74.6985 26.8556 91.1634 47.1317 91.1634Z" fill="#FF0404"/>
<path d="M79.6277 54.3873C79.6277 72.3688 65.0509 86.9456 47.0695 86.9456C29.0881 86.9456 14.5112 72.3688 14.5112 54.3873C14.5112 36.4059 29.0881 21.8291 47.0695 21.8291C65.0509 21.8291 79.6277 36.4059 79.6277 54.3873Z" fill="black"/>
<path fill-rule="evenodd" clip-rule="evenodd" d="M47.0695 86.0774C64.5714 86.0774 78.7595 71.8893 78.7595 54.3873C78.7595 36.8854 64.5714 22.6973 47.0695 22.6973C29.5676 22.6973 15.3795 36.8854 15.3795 54.3873C15.3795 71.8893 29.5676 86.0774 47.0695 86.0774ZM47.0695 86.9456C65.0509 86.9456 79.6277 72.3688 79.6277 54.3873C79.6277 36.4059 65.0509 21.8291 47.0695 21.8291C29.0881 21.8291 14.5112 36.4059 14.5112 54.3873C14.5112 72.3688 29.0881 86.9456 47.0695 86.9456Z" fill="white"/>
<path d="M47.1003 1.6123L92.8051 80.7753H1.39551L47.1003 1.6123Z" fill="black"/>
<path d="M47.1012 8.93018L86.4686 77.1164H7.73389L47.1012 8.93018Z" fill="black"/>
<path d="M42.3478 36.237C40.3642 36.5719 36.0622 37.7312 32.5588 38.8904C26.5823 40.8739 24.1866 41.4664 22.0742 41.4664C21.0696 41.4664 19.4731 41.0543 20.0907 41.6983C20.7082 42.3423 22.9501 42.8317 25.0882 42.9605C27.4582 43.0894 29.8797 42.6257 34.9288 41.0543C43.5843 38.3752 46.521 38.4267 58.9376 41.5952C67.2325 43.7076 67.9023 43.7849 71.0709 43.0121C72.4104 42.6772 72.9273 42.8317 73.5181 42.2135C74.109 41.5952 72.6938 41.9816 71.6891 41.9816C69.551 41.9816 67.5159 41.4922 60.3802 39.2768C54.378 37.3963 52.6263 36.9326 49.6896 36.4174C47.7833 36.0825 43.8419 35.9794 42.3478 36.237Z" fill="#FF0404"/>
<path d="M41.4257 41.1314C38.8239 41.5436 36.2994 42.1876 32.4095 43.3983C29.9365 44.1454 27.1028 44.9182 26.0982 45.0985C23.9085 45.4592 23.3418 45.7426 23.4448 46.3608C23.4964 46.6699 22.9554 47.3655 21.925 48.3444C20.4308 49.7354 20.302 49.9415 20.302 50.9462C20.302 51.5387 20.1135 52.107 20.4443 52.1927C20.775 52.2785 21.3325 51.6933 21.925 51.3068C23.9343 49.9158 25.5572 49.6582 27.5408 50.3537C28.9834 50.8689 29.7562 51.616 30.1168 52.8267C30.6836 54.6815 29.3332 57.0537 27.3347 57.0772C25.3361 57.1007 23.3182 55.9777 22.6978 56.4847C22.0774 56.9917 22.8266 56.9484 23.5479 57.7212C26.0724 60.4003 28.7773 64.3417 31.0184 68.5922L32.3322 71.1167L32.4868 70.1378C32.5898 69.5969 32.6671 65.6555 32.6671 61.3792C32.6671 57.0257 32.1856 54.0428 32.899 53.4707C33.6123 52.8986 36.2221 55.6604 39.2361 58.9062C47.4279 67.7679 51.4208 70.7046 57.1397 72.1472C60.9265 73.1003 65.4088 72.5336 67.753 70.7561C70.2003 68.9271 71.0761 65.166 69.7108 62.4354C67.5469 58.1076 60.1794 58.7516 58.9429 63.3886C58.505 64.9599 59.4108 66.7281 59.9733 67.2784C60.5358 67.8287 60.7792 68.2981 62.4206 68.2573C64.062 68.2165 64.0816 68.0669 64.6102 67.536C65.1389 67.0051 65.7952 63.4401 64.2238 62.8476C63.1161 62.4354 63.451 61.9975 64.7648 62.152C67.8045 62.4869 68.6031 65.9131 66.2331 68.5149C65.1254 69.7772 63.9147 70.1378 61.1068 70.1378C59.4839 70.1121 58.5307 69.9317 56.779 69.3392C52.9665 68.0255 50.9571 66.5829 45.2125 61.1474C42.3531 58.4425 39.5967 55.7892 39.1073 55.2482C38.2572 54.3208 38.2314 54.2951 38.8497 54.4754C39.2103 54.5784 41.9152 54.7072 44.9034 54.7845C49.2569 54.8876 50.751 54.836 52.6316 54.5012C55.4137 53.9859 59.2005 52.8525 62.5494 51.5129C63.8889 50.9977 66.568 50.0961 68.4743 49.5036C70.3806 48.9369 72.4414 48.2413 73.0597 47.958L74.1674 47.4685L71.7717 47.3397C69.6851 47.2109 68.5516 46.9275 63.1934 45.2273C56.2638 43.0119 52.2194 41.93 48.6387 41.3375C46.3717 40.9768 42.9456 40.8738 41.4257 41.1314ZM53.018 44.6091C56.0835 45.3304 63.7519 46.8211 63.8889 48.2929C64.026 49.7646 59.149 50.4567 55.9804 51.2553C52.8634 52.0539 46.8416 53.1616 46.3975 52.6979C45.9534 52.2342 46.6551 52.1569 47.1703 51.6675C48.9993 49.9931 49.6949 46.9533 48.7417 44.6864C48.7417 44.6864 48.1525 43.9322 48.3553 43.7332C48.5581 43.5343 49.5918 43.8878 49.5918 43.8878C50.2616 43.9908 51.8072 44.3 53.018 44.6091ZM47.0673 44.6606C49.1024 46.8245 47.0673 51.5387 43.8214 52.2342C40.7817 52.904 38.2572 51.5644 37.5616 48.9111C37.2354 47.7197 37.5105 46.3174 38.0171 45.4568C39.0697 43.4723 44.5891 41.8599 47.0673 44.6606ZM36.016 46.7472C36.016 48.7308 36.4282 50.1734 37.2267 51.0492C37.4586 51.3068 37.5101 51.5129 37.3555 51.5129C36.9176 51.5129 32.7444 49.9931 30.1683 48.9111C28.5197 48.2156 28.0591 47.5034 26.5876 47.9064C25.1161 48.3095 25.4284 47.5716 28.3136 46.9018C29.6789 46.5927 31.817 46.0002 33.0793 45.588C34.3416 45.1758 34.9487 44.6697 35.7069 44.8152C36.465 44.9606 36.016 45.3819 36.016 46.7472Z" fill="#FF0404"/>
<path fill-rule="evenodd" clip-rule="evenodd" d="M68.9264 41.0272C69.7347 41.1984 70.3751 41.2905 70.9646 41.3327L47.1012 0L23.6408 40.6346L23.5682 40.7603C24.1717 40.6861 24.8474 40.5599 25.6579 40.3657L25.7235 40.252L47.1012 3.22481L68.9264 41.0272ZM22.1977 43.1342L0 81.5816H94.2023L74.8127 47.9978L73.4423 48.5225L73.4383 48.5243C73.3953 48.544 73.3462 48.5653 73.2917 48.5882L91.4096 79.9692H2.79277L19.8225 50.4728C19.8525 50.1318 19.9345 49.8102 20.1513 49.4627C20.3245 49.1851 20.581 48.8979 20.9319 48.5513L23.8806 43.444C23.3082 43.3619 22.7284 43.2535 22.1977 43.1342ZM70.5299 43.8046L72.2229 46.737L74.1444 46.8403L72.1584 43.4005C71.9019 43.4714 71.6281 43.5436 71.3451 43.6143L71.3434 43.6147L71.3416 43.6152C71.0554 43.685 70.7871 43.7485 70.5299 43.8046Z" fill="white"/>
<path fill-rule="evenodd" clip-rule="evenodd" d="M64.1798 39.7517C64.8085 39.9391 65.3798 40.1058 65.902 40.254L47.1012 7.68994L28.7304 39.509C29.2686 39.3445 29.8498 39.1617 30.4801 38.9591L47.1012 10.1706L64.1798 39.7517ZM30.2094 39.4279L28.6073 39.7222L30.2094 39.428L30.2094 39.4279ZM26.3711 43.5955C26.8511 43.5814 27.3459 43.5426 27.8721 43.4762L27.467 44.178C26.8857 44.3252 26.4149 44.4344 26.1171 44.4881C26.018 44.5044 25.9215 44.5207 25.8275 44.537L26.3711 43.5955ZM21.2045 52.5442L6.65967 77.7367H87.5427L71.1549 49.3522C70.7695 49.4795 70.3613 49.6108 69.947 49.7407L85.3944 76.4963H8.80795L23.4109 51.2034C23.0895 51.3697 22.7549 51.5732 22.4022 51.8175L22.3951 51.8223L22.3879 51.827C22.0787 52.0287 21.6981 52.2563 21.3997 52.4308C21.33 52.4715 21.2643 52.5097 21.2045 52.5442ZM69.4383 46.379L68.1113 44.0806C67.7607 44.0753 67.3888 44.05 66.9786 44.0022C66.8579 43.9881 66.7339 43.9721 66.606 43.954L67.7537 45.9418C68.4172 46.1309 68.9601 46.272 69.4383 46.379Z" fill="#FF0404"/>
<path fill-rule="evenodd" clip-rule="evenodd" d="M59.003 38.8483C59.3899 38.9684 59.7968 39.0953 60.2256 39.2296C59.7968 39.0953 59.3899 38.9684 59.003 38.8483ZM47.1007 16.4966L59.7679 38.4368C59.3385 38.3029 58.9322 38.1768 58.5466 38.0579L47.1007 18.233L36.195 37.1222C35.7944 37.2375 35.3906 37.3562 34.9876 37.477L47.1007 16.4966ZM32.0585 42.5505C32.44 42.4456 32.8392 42.3319 33.2581 42.2091L33.0618 42.5492C32.7905 42.6321 32.5125 42.7178 32.2274 42.8066C32.1004 42.8449 31.9726 42.8833 31.8442 42.9217L32.0585 42.5505ZM27.2347 50.9056L24.1697 56.2142C24.4634 56.2695 24.7745 56.3196 25.087 56.3619L28.0418 51.244C27.8346 51.136 27.5999 51.0347 27.3337 50.9395C27.3005 50.9279 27.2675 50.9166 27.2347 50.9056ZM23.0698 58.1193L14.2856 73.334H79.9158L66.8365 50.68C66.5569 50.7717 66.2748 50.8651 65.9949 50.9587L78.412 72.4657H65.7807C64.938 72.76 64.0177 72.9684 63.0668 73.0917C61.107 73.3459 58.9611 73.2463 56.988 72.7497L56.9877 72.7496C56.6359 72.6608 56.2904 72.5665 55.9501 72.4657H32.747L32.6509 73.0741L32.3343 72.4657H15.7894L23.6844 58.7913C23.4873 58.5692 23.2912 58.3545 23.0963 58.1477L23.0953 58.1466L23.0943 58.1455C23.0861 58.1368 23.0779 58.128 23.0698 58.1193ZM63.3404 44.6245L62.4722 43.1208C62.1049 43.0319 61.7162 42.9362 61.3038 42.8335L62.1127 44.2345C62.5118 44.3605 62.9208 44.4904 63.3404 44.6245ZM32.6062 43.3383C32.5409 43.3585 32.4753 43.3789 32.4093 43.3995C32.4565 43.3848 32.5036 43.3702 32.5504 43.3556L32.6062 43.3383ZM63.1931 45.2285C63.4018 45.2947 63.604 45.3587 63.8001 45.4207C63.604 45.3587 63.4018 45.2947 63.1931 45.2285ZM29.0263 47.8024L29.3161 47.3004C29.6918 47.2064 30.092 47.1019 30.4963 46.9927L29.8504 48.1115C29.5614 47.9965 29.2871 47.8934 29.0263 47.8024Z" fill="white"/>
<path d="M47.0699 44.6575C49.105 46.8214 47.0677 51.5355 43.8219 52.231C40.7821 52.9008 38.2577 51.5613 37.5622 48.908C36.9697 46.7441 38.3603 43.8847 39.5195 44.8378C40.1635 45.3788 40.6674 46.9087 40.0234 47.8104C39.3794 48.712 38.504 48.5831 38.504 48.5831C38.504 48.5831 38.7121 49.4936 39.4963 50.196C40.9646 51.4841 43.6962 51.6128 45.2676 50.4793C46.9678 49.2944 47.6081 46.5637 46.5777 44.8635C45.9852 43.8846 46.2456 43.7816 47.0699 44.6575Z" fill="white"/>
</svg>
