<svg xmlns="http://www.w3.org/2000/svg" viewBox="0 0 500 100">
  <!-- Lightning Bolt -->
  <circle cx="50" cy="50" r="40" fill="white"/>
  <path d="M50 20 L40 50 L60 50 L50 80 L55 55 L40 55 L50 20" fill="black"/>
  
  <!-- Heart -->
  <circle cx="150" cy="50" r="40" fill="white"/>
  <path d="M150 70 Q130 50 150 30 Q170 50 150 70" fill="red"/>
  
  <!-- Star -->
  <circle cx="250" cy="50" r="40" fill="white"/>
  <path d="M250 20 L257 40 L278 40 L261 53 L268 73 L250 60 L232 73 L239 53 L222 40 L243 40 Z" fill="black"/>
  
  <!-- X Mark -->
  <circle cx="350" cy="50" r="40" fill="white"/>
  <path d="M330 30 L370 70 M370 30 L330 70" stroke="red" stroke-width="8" stroke-linecap="round"/>
  
  <!-- Circular Arrow -->
  <circle cx="450" cy="50" r="40" fill="white"/>
  <path d="M450 30 A20 20 0 1 1 430 50 L440 55 L430 50 L425 40" fill="none" stroke="black" stroke-width="6" stroke-linecap="round"/>
</svg>
